<?xml version="1.0" standalone="no"?>
<!DOCTYPE svg PUBLIC "-//W3C//DTD SVG 20010904//EN"
 "http://www.w3.org/TR/2001/REC-SVG-20010904/DTD/svg10.dtd">
<svg version="1.0" xmlns="http://www.w3.org/2000/svg"
 width="484.000000pt" height="484.000000pt" viewBox="0 0 484.000000 484.000000"
 preserveAspectRatio="xMidYMid meet">
<metadata>
Created by potrace 1.14, written by Peter Selinger 2001-2017
</metadata>
<g transform="translate(0.000000,484.000000) scale(0.100000,-0.100000)"
fill="#000000" stroke="none">
<path d="M2145 4825 c-110 -14 -227 -35 -273 -49 -9 -3 -31 -8 -48 -10 -25 -5
-105 -30 -279 -90 -135 -45 -473 -230 -551 -301 -7 -5 -24 -19 -40 -30 -203
-144 -483 -458 -611 -685 -17 -30 -41 -73 -54 -95 -114 -202 -199 -447 -254
-735 -24 -122 -33 -257 -30 -450 5 -378 75 -673 242 -1018 230 -477 617 -869
1092 -1105 215 -108 477 -193 679 -223 20 -3 43 -7 50 -9 63 -22 519 -26 652
-6 47 7 101 15 120 17 19 3 60 12 90 19 30 8 66 16 80 19 61 11 213 61 314
102 219 90 432 215 616 361 77 62 266 244 315 304 84 102 215 281 215 294 0 2
15 28 34 57 28 45 97 173 101 188 1 3 12 28 24 55 79 174 151 409 176 570 28
184 33 252 30 450 -2 172 -11 275 -30 377 -3 13 -9 48 -15 79 -17 95 -78 295
-126 412 -225 557 -644 1007 -1179 1267 -258 126 -478 192 -780 235 -85 12
-462 12 -560 0z"/>
</g>
</svg>
